<svg xmlns="http://www.w3.org/2000/svg" xmlns:xlink="http://www.w3.org/1999/xlink" width="24" height="24" viewBox="0 0 24 24"><defs><path id="ebo9a" d="M362.4 197h-3.62l-3.79 3.79a1.395 1.395 0 0 1-1.98 0l-3.79-3.79h-3.62a2.8 2.8 0 0 1-2.8-2.8v-12.601a2.8 2.8 0 0 1 2.8-2.8h16.8a2.8 2.8 0 0 1 2.8 2.8v12.6a2.8 2.8 0 0 1-2.8 2.8zm0-14a1.4 1.4 0 0 0-1.4-1.401h-14a1.4 1.4 0 0 0-1.4 1.4v9.8a1.4 1.4 0 0 0 1.4 1.4h2.8c.386 0 .736.157.99.41l3.21 3.21 3.21-3.21c.253-.253.603-.41.99-.41h2.8a1.4 1.4 0 0 0 1.4-1.4zm-4.2 8.4h-8.4a1.4 1.4 0 1 1 0-2.8h8.4a1.4 1.4 0 0 1 0 2.8zm0-4.201h-8.4a1.4 1.4 0 1 1 0-2.8h8.4a1.4 1.4 0 0 1 0 2.8z"/></defs><g><g transform="translate(-342 -178)"><use fill="#bdc3c7" xlink:href="#ebo9a"/><use fill="#fff" xlink:href="#ebo9a"/></g></g></svg>