<svg xmlns="http://www.w3.org/2000/svg" xmlns:xlink="http://www.w3.org/1999/xlink" width="20" height="20" viewBox="0 0 20 20"><defs><path id="vxmda" d="M722.946 186.765l.024.006-2.5 11.25-.024-.006c-.125.559-.6.984-1.196.984h-12.5c-.596 0-1.071-.425-1.196-.984l-.024.006-2.5-11.25.024-.006c-.02-.088-.054-.171-.054-.265 0-.691.56-1.25 1.25-1.25h2.5a6.25 6.25 0 1 1 12.5 0h2.5c.69 0 1.25.559 1.25 1.25 0 .094-.034.177-.054.265zM713 181.5a3.75 3.75 0 0 0-3.75 3.75h7.5a3.75 3.75 0 0 0-3.75-3.75zm5 8.75c-.69 0-1.25-.56-1.25-1.25v-1.25h-7.5V189a1.25 1.25 0 1 1-2.5 0v-1.25h-.942l1.945 8.75h10.494l1.945-8.75h-.942V189c0 .69-.56 1.25-1.25 1.25z"/></defs><g><g opacity=".7" transform="translate(-703 -179)"><use fill="#bdc3c7" xlink:href="#vxmda"/><use fill="#b7bacd" xlink:href="#vxmda"/></g></g></svg>