<svg xmlns="http://www.w3.org/2000/svg" xmlns:xlink="http://www.w3.org/1999/xlink" width="19" height="21" viewBox="0 0 19 21"><defs><path id="b1voa" d="M543.993 190.308c0 2.678-2.125 4.849-4.747 4.849-1.554 0-2.914-.775-3.774-1.957l-.023.017-.95-1.293-.949 1.293-.013-.01c-.866 1.177-2.231 1.95-3.784 1.95-2.621 0-4.746-2.171-4.746-4.85 0-1.091.366-2.089.962-2.9l-.013-.01s6.962-8.405 8.544-8.405c1.582 0 8.543 8.406 8.543 8.406l-.013.01c.596.81.963 1.808.963 2.9zm-11.075 6.465v-1.616c0-.892.708-1.617 1.582-1.617.874 0 1.582.725 1.582 1.617v1.616c.874 0 1.582.724 1.582 1.617 0 .892-.708 1.617-1.582 1.617h-3.164c-.874 0-1.582-.725-1.582-1.617 0-.893.708-1.617 1.582-1.617z"/></defs><g><g opacity=".7" transform="translate(-525 -179)"><use fill="#bdc3c7" xlink:href="#b1voa"/><use fill="#b7bacd" xlink:href="#b1voa"/></g></g></svg>